<mxfile host="app.diagrams.net" agent="Mozilla/5.0 (Windows NT 10.0; Win64; x64) AppleWebKit/537.36 (KHTML, like Gecko) Chrome/133.0.0.0 Safari/537.36" version="26.0.16">
  <diagram name="Page-1" id="NGW4_KPdvkKHtFCZu6jc">
    <mxGraphModel dx="2284" dy="772" grid="1" gridSize="10" guides="1" tooltips="1" connect="1" arrows="1" fold="1" page="1" pageScale="1" pageWidth="850" pageHeight="1100" math="0" shadow="0">
      <root>
        <mxCell id="0" />
        <mxCell id="1" parent="0" />
        <mxCell id="bR3tU-ndMh3hYZUZe8qv-3" style="edgeStyle=orthogonalEdgeStyle;rounded=0;orthogonalLoop=1;jettySize=auto;html=1;exitX=0.5;exitY=1;exitDx=0;exitDy=0;" edge="1" parent="1" source="bR3tU-ndMh3hYZUZe8qv-1">
          <mxGeometry relative="1" as="geometry">
            <mxPoint x="-140" y="150" as="targetPoint" />
          </mxGeometry>
        </mxCell>
        <mxCell id="bR3tU-ndMh3hYZUZe8qv-1" value="Start" style="rounded=1;whiteSpace=wrap;html=1;" vertex="1" parent="1">
          <mxGeometry x="-215" y="40" width="150" height="60" as="geometry" />
        </mxCell>
        <mxCell id="bR3tU-ndMh3hYZUZe8qv-4" value="Input (A+B)" style="rounded=0;whiteSpace=wrap;html=1;" vertex="1" parent="1">
          <mxGeometry x="-220" y="390" width="160" height="60" as="geometry" />
        </mxCell>
        <mxCell id="bR3tU-ndMh3hYZUZe8qv-6" value="Stop" style="rounded=1;whiteSpace=wrap;html=1;" vertex="1" parent="1">
          <mxGeometry x="-20" y="510" width="160" height="60" as="geometry" />
        </mxCell>
        <mxCell id="bR3tU-ndMh3hYZUZe8qv-7" value="Input A" style="shape=parallelogram;perimeter=parallelogramPerimeter;whiteSpace=wrap;html=1;fixedSize=1;" vertex="1" parent="1">
          <mxGeometry x="-200" y="150" width="120" height="60" as="geometry" />
        </mxCell>
        <mxCell id="bR3tU-ndMh3hYZUZe8qv-8" value="Input B" style="shape=parallelogram;perimeter=parallelogramPerimeter;whiteSpace=wrap;html=1;fixedSize=1;" vertex="1" parent="1">
          <mxGeometry x="-220" y="270" width="120" height="60" as="geometry" />
        </mxCell>
        <mxCell id="bR3tU-ndMh3hYZUZe8qv-10" value="" style="endArrow=classic;html=1;rounded=0;" edge="1" parent="1">
          <mxGeometry width="50" height="50" relative="1" as="geometry">
            <mxPoint x="-140.5" y="210" as="sourcePoint" />
            <mxPoint x="-140.5" y="270" as="targetPoint" />
          </mxGeometry>
        </mxCell>
        <mxCell id="bR3tU-ndMh3hYZUZe8qv-12" value="" style="endArrow=classic;html=1;rounded=0;" edge="1" parent="1">
          <mxGeometry width="50" height="50" relative="1" as="geometry">
            <mxPoint x="-140.5" y="330" as="sourcePoint" />
            <mxPoint x="-140.5" y="390" as="targetPoint" />
          </mxGeometry>
        </mxCell>
        <mxCell id="bR3tU-ndMh3hYZUZe8qv-13" value="Output" style="shape=parallelogram;perimeter=parallelogramPerimeter;whiteSpace=wrap;html=1;fixedSize=1;" vertex="1" parent="1">
          <mxGeometry y="390" width="120" height="60" as="geometry" />
        </mxCell>
        <mxCell id="bR3tU-ndMh3hYZUZe8qv-14" value="" style="endArrow=classic;html=1;rounded=0;exitX=1;exitY=0.5;exitDx=0;exitDy=0;" edge="1" parent="1" source="bR3tU-ndMh3hYZUZe8qv-4">
          <mxGeometry width="50" height="50" relative="1" as="geometry">
            <mxPoint x="-140.5" y="450" as="sourcePoint" />
            <mxPoint x="10" y="420" as="targetPoint" />
            <Array as="points">
              <mxPoint x="-40" y="420" />
            </Array>
          </mxGeometry>
        </mxCell>
        <mxCell id="bR3tU-ndMh3hYZUZe8qv-19" value="" style="endArrow=classic;html=1;rounded=0;exitX=0.5;exitY=1;exitDx=0;exitDy=0;entryX=0.5;entryY=0;entryDx=0;entryDy=0;" edge="1" parent="1" source="bR3tU-ndMh3hYZUZe8qv-13" target="bR3tU-ndMh3hYZUZe8qv-6">
          <mxGeometry width="50" height="50" relative="1" as="geometry">
            <mxPoint x="-130.5" y="340" as="sourcePoint" />
            <mxPoint x="-130.5" y="400" as="targetPoint" />
          </mxGeometry>
        </mxCell>
      </root>
    </mxGraphModel>
  </diagram>
</mxfile>
